<svg width="13" height="16" viewBox="0 0 13 16" fill="none" xmlns="http://www.w3.org/2000/svg">
<path d="M7.39957 1.16305C7.17544 0.939207 6.87164 0.813477 6.55488 0.813477C6.23812 0.813477 5.93431 0.939207 5.71019 1.16305L1.20068 5.67017C0.976439 5.89441 0.850464 6.19854 0.850464 6.51566C0.850464 6.83278 0.976439 7.13691 1.20068 7.36114C1.42491 7.58538 1.72904 7.71135 2.04616 7.71135C2.36328 7.71135 2.66741 7.58538 2.89164 7.36114L5.35957 4.89402V14.086C5.35957 14.403 5.4855 14.707 5.70966 14.9312C5.93383 15.1553 6.23786 15.2813 6.55488 15.2813C6.87189 15.2813 7.17593 15.1553 7.40009 14.9312C7.62426 14.707 7.75019 14.403 7.75019 14.086V4.89402L10.2173 7.36114C10.3283 7.47217 10.4602 7.56025 10.6052 7.62034C10.7503 7.68043 10.9058 7.71135 11.0628 7.71135C11.2198 7.71135 11.3753 7.68043 11.5204 7.62034C11.6654 7.56025 11.7973 7.47217 11.9083 7.36114C12.0193 7.25011 12.1074 7.1183 12.1675 6.97323C12.2276 6.82816 12.2585 6.67268 12.2585 6.51566C12.2585 6.35864 12.2276 6.20315 12.1675 6.05809C12.1074 5.91302 12.0193 5.78121 11.9083 5.67017L7.39957 1.16305Z" fill="#00E38F"/>
</svg>
