<svg width="13" height="16" viewBox="0 0 13 16" fill="none" xmlns="http://www.w3.org/2000/svg">
<path d="M7.39957 15.0557C7.17544 15.2795 6.87164 15.4053 6.55488 15.4053C6.23812 15.4053 5.93431 15.2795 5.71019 15.0557L1.20068 10.5486C0.976439 10.3243 0.850464 10.0202 0.850464 9.70309C0.850464 9.38597 0.976439 9.08184 1.20068 8.85761C1.42491 8.63337 1.72904 8.5074 2.04616 8.5074C2.36328 8.5074 2.66741 8.63337 2.89164 8.85761L5.35957 11.3247V2.13278C5.35957 1.81576 5.4855 1.51173 5.70966 1.28757C5.93383 1.0634 6.23786 0.937466 6.55488 0.937466C6.87189 0.937466 7.17593 1.0634 7.40009 1.28757C7.62426 1.51173 7.75019 1.81576 7.75019 2.13278V11.3247L10.2173 8.85761C10.3283 8.74658 10.4602 8.6585 10.6052 8.59841C10.7503 8.53832 10.9058 8.5074 11.0628 8.5074C11.2198 8.5074 11.3753 8.53832 11.5204 8.59841C11.6654 8.6585 11.7973 8.74658 11.9083 8.85761C12.0193 8.96864 12.1074 9.10045 12.1675 9.24552C12.2276 9.39059 12.2585 9.54607 12.2585 9.70309C12.2585 9.86011 12.2276 10.0156 12.1675 10.1607C12.1074 10.3057 12.0193 10.4375 11.9083 10.5486L7.39957 15.0557Z" fill="#051A1C"/>
</svg>
