<svg width="16" height="15" viewBox="0 0 16 15" fill="none" xmlns="http://www.w3.org/2000/svg">
<path d="M8.01564 9.08066L2.484 14.6123C2.27703 14.8193 2.01362 14.9228 1.69376 14.9228C1.37391 14.9228 1.11049 14.8193 0.903527 14.6123C0.696561 14.4053 0.593079 14.1419 0.593079 13.8221C0.593079 13.5022 0.696561 13.2388 0.903527 13.0318L6.43517 7.5002L0.903527 1.96855C0.696561 1.76159 0.593079 1.49818 0.593079 1.17832C0.593079 0.858463 0.696561 0.595052 0.903527 0.388086C1.11049 0.181119 1.37391 0.0776367 1.69376 0.0776367C2.01362 0.0776367 2.27703 0.181119 2.484 0.388086L8.01564 5.91973L13.5473 0.388086C13.7542 0.181119 14.0177 0.0776367 14.3375 0.0776367C14.6574 0.0776367 14.9208 0.181119 15.1277 0.388086C15.3347 0.595052 15.4382 0.858463 15.4382 1.17832C15.4382 1.49818 15.3347 1.76159 15.1277 1.96855L9.59611 7.5002L15.1277 13.0318C15.3347 13.2388 15.4382 13.5022 15.4382 13.8221C15.4382 14.1419 15.3347 14.4053 15.1277 14.6123C14.9208 14.8193 14.6574 14.9228 14.3375 14.9228C14.0177 14.9228 13.7542 14.8193 13.5473 14.6123L8.01564 9.08066Z" fill="white"/>
</svg>
