<svg width="20" height="20" viewBox="0 0 20 20" fill="none" xmlns="http://www.w3.org/2000/svg">
<path d="M7.82812 1.33594C7.51111 1.33594 7.20708 1.46187 6.98291 1.68604C6.75875 1.9102 6.63281 2.21423 6.63281 2.53125V3.12891C6.63281 3.28741 6.56985 3.43943 6.45776 3.55151C6.34568 3.6636 6.19366 3.72656 6.03516 3.72656C5.87665 3.72656 5.72463 3.6636 5.61255 3.55151C5.50047 3.43943 5.4375 3.28741 5.4375 3.12891V2.53125C5.4375 1.89722 5.68937 1.28915 6.1377 0.840823C6.58603 0.392494 7.19409 0.140625 7.82812 0.140625H8.42578C8.58429 0.140625 8.73631 0.203592 8.84839 0.315675C8.96047 0.427757 9.02344 0.579773 9.02344 0.738281C9.02344 0.89679 8.96047 1.04881 8.84839 1.16089C8.73631 1.27297 8.58429 1.33594 8.42578 1.33594H7.82812ZM6.63281 12.0938C6.63281 12.4108 6.75875 12.7148 6.98291 12.939C7.20708 13.1631 7.51111 13.2891 7.82812 13.2891H8.42578C8.58429 13.2891 8.73631 13.352 8.84839 13.4641C8.96047 13.5762 9.02344 13.7282 9.02344 13.8867C9.02344 14.0452 8.96047 14.1972 8.84839 14.3093C8.73631 14.4214 8.58429 14.4844 8.42578 14.4844H7.82812C7.19409 14.4844 6.58603 14.2325 6.1377 13.7842C5.68937 13.3358 5.4375 12.7278 5.4375 12.0938V11.4961C5.4375 11.3376 5.50047 11.1856 5.61255 11.0735C5.72463 10.9614 5.87665 10.8984 6.03516 10.8984C6.19366 10.8984 6.34568 10.9614 6.45776 11.0735C6.56985 11.1856 6.63281 11.3376 6.63281 11.4961V12.0938ZM6.63281 5.51953C6.63281 5.36102 6.56985 5.20901 6.45776 5.09692C6.34568 4.98484 6.19366 4.92188 6.03516 4.92188C5.87665 4.92188 5.72463 4.98484 5.61255 5.09692C5.50047 5.20901 5.4375 5.36102 5.4375 5.51953V9.10547C5.4375 9.26398 5.50047 9.41599 5.61255 9.52808C5.72463 9.64016 5.87665 9.70312 6.03516 9.70312C6.19366 9.70312 6.34568 9.64016 6.45776 9.52808C6.56985 9.41599 6.63281 9.26398 6.63281 9.10547V5.51953ZM17.3906 1.33594C17.7076 1.33594 18.0117 1.46187 18.2358 1.68604C18.46 1.9102 18.5859 2.21423 18.5859 2.53125V3.12891C18.5859 3.28741 18.6489 3.43943 18.761 3.55151C18.8731 3.6636 19.0251 3.72656 19.1836 3.72656C19.3421 3.72656 19.4941 3.6636 19.6062 3.55151C19.7183 3.43943 19.7812 3.28741 19.7812 3.12891V2.53125C19.7812 1.89722 19.5294 1.28915 19.0811 0.840823C18.6327 0.392494 18.0247 0.140625 17.3906 0.140625H16.793C16.6345 0.140625 16.4824 0.203592 16.3704 0.315675C16.2583 0.427757 16.1953 0.579773 16.1953 0.738281C16.1953 0.89679 16.2583 1.04881 16.3704 1.16089C16.4824 1.27297 16.6345 1.33594 16.793 1.33594H17.3906ZM17.3906 13.2891C17.7076 13.2891 18.0117 13.1631 18.2358 12.939C18.46 12.7148 18.5859 12.4108 18.5859 12.0938V11.4961C18.5859 11.3376 18.6489 11.1856 18.761 11.0735C18.8731 10.9614 19.0251 10.8984 19.1836 10.8984C19.3421 10.8984 19.4941 10.9614 19.6062 11.0735C19.7183 11.1856 19.7812 11.3376 19.7812 11.4961V12.0938C19.7812 12.7278 19.5294 13.3358 19.0811 13.7842C18.6327 14.2325 18.0247 14.4844 17.3906 14.4844H16.793C16.6345 14.4844 16.4824 14.4214 16.3704 14.3093C16.2583 14.1972 16.1953 14.0452 16.1953 13.8867C16.1953 13.7282 16.2583 13.5762 16.3704 13.4641C16.4824 13.352 16.6345 13.2891 16.793 13.2891H17.3906ZM19.1836 4.92188C19.0251 4.92188 18.8731 4.98484 18.761 5.09692C18.6489 5.20901 18.5859 5.36102 18.5859 5.51953V9.10547C18.5859 9.26398 18.6489 9.41599 18.761 9.52808C18.8731 9.64016 19.0251 9.70312 19.1836 9.70312C19.3421 9.70312 19.4941 9.64016 19.6062 9.52808C19.7183 9.41599 19.7812 9.26398 19.7812 9.10547V5.51953C19.7812 5.36102 19.7183 5.20901 19.6062 5.09692C19.4941 4.98484 19.3421 4.92188 19.1836 4.92188ZM10.8164 0.140625C10.6579 0.140625 10.5059 0.203592 10.3938 0.315675C10.2817 0.427757 10.2188 0.579773 10.2188 0.738281C10.2188 0.89679 10.2817 1.04881 10.3938 1.16089C10.5059 1.27297 10.6579 1.33594 10.8164 1.33594H14.4023C14.5609 1.33594 14.7129 1.27297 14.825 1.16089C14.937 1.04881 15 0.89679 15 0.738281C15 0.579773 14.937 0.427757 14.825 0.315675C14.7129 0.203592 14.5609 0.140625 14.4023 0.140625H10.8164ZM10.2188 13.8867C10.2188 13.7282 10.2817 13.5762 10.3938 13.4641C10.5059 13.352 10.6579 13.2891 10.8164 13.2891H14.4023C14.5609 13.2891 14.7129 13.352 14.825 13.4641C14.937 13.5762 15 13.7282 15 13.8867C15 14.0452 14.937 14.1972 14.825 14.3093C14.7129 14.4214 14.5609 14.4844 14.4023 14.4844H10.8164C10.6579 14.4844 10.5059 14.4214 10.3938 14.3093C10.2817 14.1972 10.2188 14.0452 10.2188 13.8867ZM3.04688 4.92188H4.24219V12.6914C4.24219 13.4839 4.55702 14.244 5.11743 14.8044C5.67785 15.3649 6.43793 15.6797 7.23047 15.6797H15V16.875C15 17.509 14.7481 18.1171 14.2998 18.5654C13.8515 19.0138 13.2434 19.2656 12.6094 19.2656H4.83984C3.73029 19.2656 2.66617 18.8249 1.8816 18.0403C1.09702 17.2557 0.65625 16.1916 0.65625 15.082V7.3125C0.65625 6.67847 0.908119 6.0704 1.35645 5.62207C1.80478 5.17374 2.41284 4.92188 3.04688 4.92188Z" fill="#00E38F"/>
</svg>
