<svg width="24" height="24" viewBox="0 0 24 24" fill="none" xmlns="http://www.w3.org/2000/svg">
<path d="M16.7933 13.6001C16.9848 13.0885 17.0819 12.5464 17.08 12.0001C17.08 10.7872 16.5981 9.62392 15.7405 8.76626C14.8828 7.90859 13.7196 7.42676 12.5066 7.42676C11.9671 7.42739 11.432 7.52447 10.9266 7.71342L12 8.82009C12.1631 8.79399 12.3281 8.78061 12.4933 8.78009C13.3509 8.7783 14.1744 9.11592 14.784 9.71922C15.3935 10.3225 15.7396 11.1425 15.7466 12.0001C15.7461 12.1653 15.7327 12.3303 15.7066 12.4934L16.7933 13.6001Z" fill="#A1ADB2"/>
<path d="M22.8603 11.6867C20.6136 7.53335 16.6736 5.02002 12.3136 5.02002C11.1265 5.02281 9.94742 5.21408 8.82031 5.58669L9.89365 6.66669C10.6842 6.46237 11.4971 6.35712 12.3136 6.35335C16.067 6.35335 19.4803 8.44669 21.5136 11.9734C20.7677 13.2818 19.7789 14.4357 18.6003 15.3734L19.547 16.32C20.911 15.2196 22.0439 13.8601 22.8803 12.32L23.0536 12L22.8603 11.6867Z" fill="#A1ADB2"/>
<path d="M3.24691 3.8532L6.22025 6.82653C4.34086 8.0366 2.80485 9.71037 1.76025 11.6865L1.58691 11.9999L1.76025 12.3199C4.00691 16.4732 7.94691 18.9865 12.3069 18.9865C14.0087 18.9862 15.6883 18.601 17.2202 17.8599L20.5536 21.1932L21.7202 20.1932L4.38691 2.85986L3.24691 3.8532ZM9.74691 10.3532L14.1802 14.7865C13.6793 15.0966 13.1027 15.2627 12.5136 15.2665C12.0855 15.2665 11.6617 15.1819 11.2665 15.0175C10.8713 14.8531 10.5125 14.6121 10.2107 14.3085C9.909 14.0049 9.67027 13.6447 9.50829 13.2485C9.34631 12.8522 9.26428 12.4279 9.26691 11.9999C9.27443 11.4176 9.44036 10.8483 9.74691 10.3532ZM8.78025 9.38653C8.15654 10.2661 7.8642 11.3381 7.95499 12.4125C8.04578 13.487 8.51385 14.4947 9.27632 15.2571C10.0388 16.0196 11.0465 16.4877 12.1209 16.5785C13.1954 16.6692 14.2673 16.3769 15.1469 15.7532L16.2136 16.8199C14.9788 17.3477 13.6498 17.6198 12.3069 17.6199C8.55358 17.6199 5.14025 15.5265 3.10691 11.9999C4.08272 10.272 5.48806 8.82533 7.18691 7.79986L8.78025 9.38653Z" fill="#A1ADB2"/>
</svg>
