<svg width="24" height="25" viewBox="0 0 24 25" fill="none" xmlns="http://www.w3.org/2000/svg">
<path d="M13.6917 1.95516C13.2183 1.55619 12.6191 1.33737 12 1.33737C11.3809 1.33737 10.7817 1.55619 10.3083 1.95516L2.43333 8.59933C2.14104 8.84568 1.90607 9.15289 1.74486 9.4995C1.58365 9.8461 1.50008 10.2237 1.5 10.606V21.4618C1.5 22.5888 2.41467 23.5035 3.54167 23.5035H7.04167C7.58315 23.5035 8.10246 23.2884 8.48534 22.9055C8.86823 22.5226 9.08333 22.0033 9.08333 21.4618V16.7917C9.08333 15.9983 9.71567 15.3543 10.5032 15.3333H13.4968C13.8769 15.3434 14.238 15.5014 14.5032 15.7738C14.7684 16.0463 14.9168 16.4115 14.9167 16.7917V21.4618C14.9167 22.5888 15.8313 23.5035 16.9583 23.5035H20.4583C20.9998 23.5035 21.5191 23.2884 21.902 22.9055C22.2849 22.5226 22.5 22.0033 22.5 21.4618V10.6048C22.4999 10.2226 22.4164 9.84493 22.2551 9.49833C22.0939 9.15172 21.859 8.84451 21.5667 8.59816L13.6917 1.95516Z" stroke="white" stroke-width="2"/>
</svg>
