<svg width="26" height="20" viewBox="0 0 26 20" fill="none" xmlns="http://www.w3.org/2000/svg">
<path d="M2.57812 0.515625C1.94409 0.515625 1.33603 0.767494 0.887698 1.21582C0.439369 1.66415 0.1875 2.27222 0.1875 2.90625L0.1875 6.09375H9.75C9.96134 6.09375 10.164 6.17771 10.3135 6.32715C10.4629 6.47659 10.5469 6.67928 10.5469 6.89062C10.5469 7.29384 10.6744 7.917 11.0346 8.41744C11.3645 8.87644 11.9223 9.28125 12.9375 9.28125C13.9527 9.28125 14.5105 8.87644 14.8404 8.41744C15.2006 7.917 15.3281 7.29384 15.3281 6.89062C15.3281 6.67928 15.4121 6.47659 15.5615 6.32715C15.711 6.17771 15.9137 6.09375 16.125 6.09375H25.6875V2.90625C25.6875 2.27222 25.4356 1.66415 24.9873 1.21582C24.539 0.767494 23.9309 0.515625 23.2969 0.515625H2.57812Z" fill="#00E38F"/>
<path d="M25.6875 7.6875H16.8406C16.7263 8.28506 16.4856 8.85127 16.1346 9.34819C15.5082 10.2184 14.4723 10.875 12.9375 10.875C11.4027 10.875 10.3668 10.2184 9.74044 9.34819C9.38947 8.85125 9.14875 8.28504 9.03441 7.6875H0.1875V17.25C0.1875 17.884 0.439369 18.4921 0.887698 18.9404C1.33603 19.3888 1.94409 19.6406 2.57812 19.6406H23.2969C23.9309 19.6406 24.539 19.3888 24.9873 18.9404C25.4356 18.4921 25.6875 17.884 25.6875 17.25V7.6875Z" fill="#00E38F"/>
</svg>
