<svg width="50" height="50" viewBox="0 0 50 50" fill="none" xmlns="http://www.w3.org/2000/svg">
<circle cx="25" cy="25" r="24.5" stroke="url(#paint0_linear_2002_1020)"/>
<path d="M19.94 18C19.9397 18.5305 19.7288 19.0391 19.3535 19.4139C18.9782 19.7888 18.4694 19.9993 17.939 19.999C17.4086 19.9988 16.9 19.7878 16.5251 19.4125C16.1502 19.0373 15.9397 18.5285 15.94 17.998C15.9403 17.4676 16.1512 16.959 16.5265 16.5841C16.9018 16.2092 17.4106 15.9988 17.941 15.999C18.4714 15.9993 18.98 16.2103 19.3549 16.5855C19.7298 16.9608 19.9403 17.4696 19.94 18ZM20 21.48H16V34H20V21.48ZM26.32 21.48H22.34V34H26.28V27.43C26.28 23.77 31.05 23.43 31.05 27.43V34H35V26.07C35 19.9 27.94 20.13 26.28 23.16L26.32 21.48Z" fill="#01F299"/>
<defs>
<linearGradient id="paint0_linear_2002_1020" x1="13.0556" y1="-18.0556" x2="52.6738" y2="36.5672" gradientUnits="userSpaceOnUse">
<stop stop-color="white"/>
<stop offset="0.237864" stop-opacity="0"/>
<stop offset="0.472362" stop-color="#01F299"/>
<stop offset="0.812781" stop-color="#048C64"/>
<stop offset="1" stop-color="#000749" stop-opacity="0"/>
</linearGradient>
</defs>
</svg>
