<svg width="108" height="108" viewBox="0 0 108 108" fill="none" xmlns="http://www.w3.org/2000/svg">
<g clip-path="url(#clip0_1717_6048)">
<path d="M13.957 13.9102H27.3047V27.2578H13.957V13.9102Z" fill="#00E38F"/>
<path d="M40.6523 0.5625V40.6055H0.609375V0.5625H40.6523ZM33.9785 7.23633H7.2832V33.9316H33.9785V7.23633ZM27.3047 80.6484H13.957V93.9961H27.3047V80.6484Z" fill="#00E38F"/>
<path d="M40.6523 67.3008V107.344H0.609375V67.3008H40.6523ZM7.2832 73.9746V100.67H33.9785V73.9746H7.2832ZM80.6953 13.9102H94.043V27.2578H80.6953V13.9102Z" fill="#00E38F"/>
<path d="M67.3477 0.5625V40.6055H107.391V0.5625H67.3477ZM100.717 7.23633V33.9316H74.0215V7.23633H100.717ZM54 7.23633V0.5625H60.6738V13.9102H54V27.2578H47.3262V7.23633H54ZM54 40.6055V27.2578H60.6738V40.6055H54ZM40.6523 53.9531V47.2793H47.3262V40.6055H54V53.9531H60.6738V47.2793H94.043V53.9531H67.3477V60.627H47.3262V53.9531H40.6523ZM40.6523 53.9531V60.627H13.957V53.9531H7.2832V60.627H0.609375V47.2793H20.6309V53.9531H40.6523ZM107.391 60.627H100.717V47.2793H107.391V60.627ZM100.717 60.627H94.043V73.9746H107.391V67.3008H100.717V60.627ZM74.0215 60.627H87.3691V67.3008H80.6953V73.9746H74.0215V60.627ZM87.3691 80.6484V73.9746H80.6953V80.6484H74.0215V87.3223H60.6738V93.9961H80.6953V80.6484H87.3691ZM87.3691 80.6484H107.391V87.3223H94.043V93.9961H87.3691V80.6484ZM60.6738 73.9746V80.6484H67.3477V67.3008H47.3262V73.9746H60.6738Z" fill="#00E38F"/>
<path d="M47.3262 80.6484H54V100.67H80.6953V107.344H47.3262V80.6484ZM107.391 93.9961V107.344H87.3691V100.67H100.717V93.9961H107.391Z" fill="#00E38F"/>
</g>
<defs>
<clipPath id="clip0_1717_6048">
<rect width="106.781" height="106.781" fill="white" transform="translate(0.609375 0.5625)"/>
</clipPath>
</defs>
</svg>
