<svg width="15" height="15" viewBox="0 0 15 15" fill="none" xmlns="http://www.w3.org/2000/svg">
<path d="M3.69096 0.931152C2.88599 0.931152 2.11399 1.23339 1.54479 1.77139C0.975595 2.30938 0.655823 3.03906 0.655823 3.7999V5.23428C0.655823 5.36108 0.709118 5.4827 0.803985 5.57236C0.898851 5.66203 1.02752 5.7124 1.16168 5.7124C1.29584 5.7124 1.42451 5.66203 1.51937 5.57236C1.61424 5.4827 1.66754 5.36108 1.66754 5.23428V3.7999C1.66754 3.29268 1.88072 2.80622 2.26018 2.44756C2.63965 2.0889 3.15431 1.8874 3.69096 1.8874H5.20853C5.34269 1.8874 5.47136 1.83703 5.56622 1.74736C5.66109 1.6577 5.71438 1.53608 5.71438 1.40928C5.71438 1.28247 5.66109 1.16086 5.56622 1.07119C5.47136 0.981526 5.34269 0.931152 5.20853 0.931152H3.69096ZM10.2671 0.931152C10.1329 0.931152 10.0043 0.981526 9.9094 1.07119C9.81453 1.16086 9.76123 1.28247 9.76123 1.40928C9.76123 1.53608 9.81453 1.6577 9.9094 1.74736C10.0043 1.83703 10.1329 1.8874 10.2671 1.8874H11.7847C12.3213 1.8874 12.836 2.0889 13.2154 2.44756C13.5949 2.80622 13.8081 3.29268 13.8081 3.7999V5.23428C13.8081 5.36108 13.8614 5.4827 13.9562 5.57236C14.0511 5.66203 14.1798 5.7124 14.3139 5.7124C14.4481 5.7124 14.5768 5.66203 14.6716 5.57236C14.7665 5.4827 14.8198 5.36108 14.8198 5.23428V3.7999C14.8198 3.03906 14.5 2.30938 13.9308 1.77139C13.3616 1.23339 12.5896 0.931152 11.7847 0.931152H10.2671ZM1.66754 10.0155C1.66754 9.88872 1.61424 9.76711 1.51937 9.67744C1.42451 9.58778 1.29584 9.5374 1.16168 9.5374C1.02752 9.5374 0.898851 9.58778 0.803985 9.67744C0.709118 9.76711 0.655823 9.88872 0.655823 10.0155V11.4499C0.655823 12.2107 0.975595 12.9404 1.54479 13.4784C2.11399 14.0164 2.88599 14.3187 3.69096 14.3187H5.20853C5.34269 14.3187 5.47136 14.2683 5.56622 14.1786C5.66109 14.0889 5.71438 13.9673 5.71438 13.8405C5.71438 13.7137 5.66109 13.5921 5.56622 13.5024C5.47136 13.4128 5.34269 13.3624 5.20853 13.3624H3.69096C3.15431 13.3624 2.63965 13.1609 2.26018 12.8022C1.88072 12.4436 1.66754 11.9571 1.66754 11.4499V10.0155ZM14.8198 10.0155C14.8198 9.88872 14.7665 9.76711 14.6716 9.67744C14.5768 9.58778 14.4481 9.5374 14.3139 9.5374C14.1798 9.5374 14.0511 9.58778 13.9562 9.67744C13.8614 9.76711 13.8081 9.88872 13.8081 10.0155V11.4499C13.8081 11.9571 13.5949 12.4436 13.2154 12.8022C12.836 13.1609 12.3213 13.3624 11.7847 13.3624H10.2671C10.1329 13.3624 10.0043 13.4128 9.9094 13.5024C9.81453 13.5921 9.76123 13.7137 9.76123 13.8405C9.76123 13.9673 9.81453 14.0889 9.9094 14.1786C10.0043 14.2683 10.1329 14.3187 10.2671 14.3187H11.7847C12.5896 14.3187 13.3616 14.0164 13.9308 13.4784C14.5 12.9404 14.8198 12.2107 14.8198 11.4499V10.0155ZM4.19682 7.14678C4.06265 7.14678 3.93399 7.19715 3.83912 7.28682C3.74426 7.37648 3.69096 7.4981 3.69096 7.6249C3.69096 7.75171 3.74426 7.87332 3.83912 7.96299C3.93399 8.05265 4.06265 8.10303 4.19682 8.10303H11.2788C11.413 8.10303 11.5416 8.05265 11.6365 7.96299C11.7314 7.87332 11.7847 7.75171 11.7847 7.6249C11.7847 7.4981 11.7314 7.37648 11.6365 7.28682C11.5416 7.19715 11.413 7.14678 11.2788 7.14678H4.19682Z" fill="white"/>
</svg>
