<svg width="24" height="24" viewBox="0 0 24 24" fill="none" xmlns="http://www.w3.org/2000/svg">
<path d="M7.2001 3.6001C6.24532 3.6001 5.32964 3.97938 4.65451 4.65451C3.97938 5.32964 3.6001 6.24532 3.6001 7.2001V9.0001C3.6001 9.15923 3.66331 9.31184 3.77583 9.42436C3.88836 9.53688 4.04097 9.6001 4.2001 9.6001C4.35923 9.6001 4.51184 9.53688 4.62436 9.42436C4.73688 9.31184 4.8001 9.15923 4.8001 9.0001V7.2001C4.8001 6.56358 5.05295 5.95313 5.50304 5.50304C5.95313 5.05295 6.56358 4.8001 7.2001 4.8001H9.0001C9.15923 4.8001 9.31184 4.73688 9.42436 4.62436C9.53688 4.51184 9.6001 4.35923 9.6001 4.2001C9.6001 4.04097 9.53688 3.88836 9.42436 3.77583C9.31184 3.66331 9.15923 3.6001 9.0001 3.6001H7.2001ZM15.0001 3.6001C14.841 3.6001 14.6884 3.66331 14.5758 3.77583C14.4633 3.88836 14.4001 4.04097 14.4001 4.2001C14.4001 4.35923 14.4633 4.51184 14.5758 4.62436C14.6884 4.73688 14.841 4.8001 15.0001 4.8001H16.8001C17.4366 4.8001 18.0471 5.05295 18.4972 5.50304C18.9472 5.95313 19.2001 6.56358 19.2001 7.2001V9.0001C19.2001 9.15923 19.2633 9.31184 19.3758 9.42436C19.4884 9.53688 19.641 9.6001 19.8001 9.6001C19.9592 9.6001 20.1118 9.53688 20.2244 9.42436C20.3369 9.31184 20.4001 9.15923 20.4001 9.0001V7.2001C20.4001 6.24532 20.0208 5.32964 19.3457 4.65451C18.6706 3.97938 17.7549 3.6001 16.8001 3.6001H15.0001ZM4.8001 15.0001C4.8001 14.841 4.73688 14.6884 4.62436 14.5758C4.51184 14.4633 4.35923 14.4001 4.2001 14.4001C4.04097 14.4001 3.88836 14.4633 3.77583 14.5758C3.66331 14.6884 3.6001 14.841 3.6001 15.0001V16.8001C3.6001 17.7549 3.97938 18.6706 4.65451 19.3457C5.32964 20.0208 6.24532 20.4001 7.2001 20.4001H9.0001C9.15923 20.4001 9.31184 20.3369 9.42436 20.2244C9.53688 20.1118 9.6001 19.9592 9.6001 19.8001C9.6001 19.641 9.53688 19.4884 9.42436 19.3758C9.31184 19.2633 9.15923 19.2001 9.0001 19.2001H7.2001C6.56358 19.2001 5.95313 18.9472 5.50304 18.4972C5.05295 18.0471 4.8001 17.4366 4.8001 16.8001V15.0001ZM20.4001 15.0001C20.4001 14.841 20.3369 14.6884 20.2244 14.5758C20.1118 14.4633 19.9592 14.4001 19.8001 14.4001C19.641 14.4001 19.4884 14.4633 19.3758 14.5758C19.2633 14.6884 19.2001 14.841 19.2001 15.0001V16.8001C19.2001 17.4366 18.9472 18.0471 18.4972 18.4972C18.0471 18.9472 17.4366 19.2001 16.8001 19.2001H15.0001C14.841 19.2001 14.6884 19.2633 14.5758 19.3758C14.4633 19.4884 14.4001 19.641 14.4001 19.8001C14.4001 19.9592 14.4633 20.1118 14.5758 20.2244C14.6884 20.3369 14.841 20.4001 15.0001 20.4001H16.8001C17.7549 20.4001 18.6706 20.0208 19.3457 19.3457C20.0208 18.6706 20.4001 17.7549 20.4001 16.8001V15.0001ZM7.8001 11.4001C7.64097 11.4001 7.48836 11.4633 7.37583 11.5758C7.26331 11.6884 7.2001 11.841 7.2001 12.0001C7.2001 12.1592 7.26331 12.3118 7.37583 12.4244C7.48836 12.5369 7.64097 12.6001 7.8001 12.6001H16.2001C16.3592 12.6001 16.5118 12.5369 16.6244 12.4244C16.7369 12.3118 16.8001 12.1592 16.8001 12.0001C16.8001 11.841 16.7369 11.6884 16.6244 11.5758C16.5118 11.4633 16.3592 11.4001 16.2001 11.4001H7.8001Z" fill="#00E38F"/>
</svg>
