<svg width="19" height="21" viewBox="0 0 19 21" fill="none" xmlns="http://www.w3.org/2000/svg">
<path d="M15.9297 20.6641C15.0996 20.6641 14.394 20.3735 13.813 19.7925C13.2319 19.2114 12.9414 18.5059 12.9414 17.6758C12.9414 17.5596 12.9497 17.439 12.9663 17.3142C12.9829 17.1894 13.0078 17.0775 13.041 16.9785L6.01855 12.8945C5.73633 13.1436 5.4209 13.3388 5.07227 13.4802C4.72363 13.6217 4.3584 13.6921 3.97656 13.6914C3.14648 13.6914 2.44092 13.4009 1.85986 12.8198C1.27881 12.2388 0.988281 11.5332 0.988281 10.7031C0.988281 9.87305 1.27881 9.16748 1.85986 8.58643C2.44092 8.00537 3.14648 7.71484 3.97656 7.71484C4.3584 7.71484 4.72363 7.78557 5.07227 7.92701C5.4209 8.06846 5.73633 8.26336 6.01855 8.51172L13.041 4.42773C13.0078 4.32812 12.9829 4.21623 12.9663 4.09205C12.9497 3.96787 12.9414 3.84734 12.9414 3.73047C12.9414 2.90039 13.2319 2.19482 13.813 1.61377C14.394 1.03271 15.0996 0.742188 15.9297 0.742188C16.7598 0.742188 17.4653 1.03271 18.0464 1.61377C18.6274 2.19482 18.918 2.90039 18.918 3.73047C18.918 4.56055 18.6274 5.26611 18.0464 5.84717C17.4653 6.42822 16.7598 6.71875 15.9297 6.71875C15.5479 6.71875 15.1826 6.64836 14.834 6.50758C14.4854 6.3668 14.1699 6.17156 13.8877 5.92187L6.86523 10.0059C6.89844 10.1055 6.92334 10.2177 6.93994 10.3425C6.95654 10.4674 6.96484 10.5876 6.96484 10.7031C6.96484 10.8193 6.95654 10.9399 6.93994 11.0647C6.92334 11.1896 6.89844 11.3014 6.86523 11.4004L13.8877 15.4844C14.1699 15.2354 14.4854 15.0404 14.834 14.8997C15.1826 14.7589 15.5479 14.6882 15.9297 14.6875C16.7598 14.6875 17.4653 14.978 18.0464 15.5591C18.6274 16.1401 18.918 16.8457 18.918 17.6758C18.918 18.5059 18.6274 19.2114 18.0464 19.7925C17.4653 20.3735 16.7598 20.6641 15.9297 20.6641Z" fill="#00E38F"/>
</svg>
