<svg width="21" height="19" viewBox="0 0 21 19" fill="none" xmlns="http://www.w3.org/2000/svg">
<path d="M16.4637 16.4143L16.4635 16.4156C14.6491 17.4567 12.593 18.003 10.5011 18L10.4988 18C8.40688 18.0033 6.3508 17.4569 4.53646 16.4156C4.38727 15.0519 4.70698 13.6781 5.44294 12.5204L5.48078 12.4608C6.01956 11.638 6.75274 10.9601 7.61595 10.4872C8.4999 10.003 9.49168 9.74943 10.4996 9.75L10.5007 9.75C11.3449 9.74923 12.1797 9.92676 12.9506 10.271C13.7214 10.6152 14.4109 11.1183 14.9738 11.7475C15.5367 12.3766 15.9604 13.1175 16.2172 13.9217C16.4739 14.726 16.5579 15.5753 16.4637 16.4143ZM7.5 3.75C7.5 2.95435 7.81607 2.19129 8.37868 1.62868C8.94129 1.06607 9.70435 0.75 10.5 0.75C11.2956 0.75 12.0587 1.06607 12.6213 1.62868C13.1839 2.19129 13.5 2.95435 13.5 3.75C13.5 4.54565 13.1839 5.30871 12.6213 5.87132C12.0587 6.43393 11.2956 6.75 10.5 6.75C9.70435 6.75 8.94129 6.43393 8.37868 5.87132C7.81607 5.30871 7.5 4.54565 7.5 3.75ZM15 6.75C15 6.15326 15.2371 5.58097 15.659 5.15901C16.081 4.73705 16.6533 4.5 17.25 4.5C17.8467 4.5 18.419 4.73705 18.841 5.15901C19.2629 5.58097 19.5 6.15326 19.5 6.75C19.5 7.34674 19.2629 7.91903 18.841 8.34099C18.419 8.76295 17.8467 9 17.25 9C16.6533 9 16.081 8.76295 15.659 8.34099C15.2371 7.91903 15 7.34674 15 6.75ZM1.5 6.75C1.5 6.15326 1.73705 5.58097 2.15901 5.15901C2.58097 4.73705 3.15326 4.5 3.75 4.5C4.34674 4.5 4.91903 4.73705 5.34099 5.15901C5.76295 5.58097 6 6.15326 6 6.75C6 7.34674 5.76295 7.91903 5.34099 8.34099C4.91903 8.76295 4.34674 9 3.75 9C3.15326 9 2.58097 8.76295 2.15901 8.34099C1.73705 7.91903 1.5 7.34674 1.5 6.75Z" stroke="white" stroke-width="1.5"/>
<path d="M2.11407 12.4855C1.74455 13.4361 1.53782 14.4446 1.50477 15.468C1.25337 15.4035 1.00477 15.328 0.759667 15.2418L0.759588 15.2409C0.759568 15.2406 0.759547 15.2404 0.759527 15.2401C0.727334 14.8387 0.776274 14.435 0.903432 14.0529C1.03067 13.6706 1.23362 13.3178 1.50017 13.0157C1.68025 12.8115 1.88688 12.6333 2.11407 12.4855ZM20.0966 14.0529C20.2237 14.4349 20.2727 14.8386 20.2405 15.2399C20.2405 15.2402 20.2405 15.2405 20.2404 15.2408C19.9962 15.3269 19.7477 15.4027 19.4952 15.4678C19.4622 14.4444 19.2554 13.4361 18.8859 12.4855C19.1131 12.6333 19.3198 12.8115 19.4998 13.0157C19.7664 13.3178 19.9693 13.6706 20.0966 14.0529Z" stroke="white" stroke-width="1.5"/>
</svg>
