<svg width="20" height="20" viewBox="0 0 20 20" fill="none" xmlns="http://www.w3.org/2000/svg">
<path d="M10.1563 0.421875C8.26497 0.421875 6.41616 0.982706 4.84361 2.03345C3.27107 3.08419 2.04542 4.57765 1.32166 6.32496C0.597894 8.07228 0.408524 9.99498 0.777495 11.8499C1.14647 13.7049 2.05721 15.4087 3.39455 16.7461C4.73189 18.0834 6.43576 18.9942 8.2907 19.3631C10.1456 19.7321 12.0683 19.5427 13.8157 18.819C15.563 18.0952 17.0564 16.8696 18.1072 15.297C19.1579 13.7245 19.7188 11.8757 19.7188 9.98437C19.7188 7.44824 18.7113 5.01598 16.918 3.22267C15.1246 1.42935 12.6924 0.421875 10.1563 0.421875ZM16.6651 16.4925C15.0508 18.1027 12.8947 19.0542 10.6172 19.1615C8.33959 19.2689 6.10364 18.5244 4.34502 17.0731C2.5864 15.6219 1.43111 13.5678 1.10426 11.3113C0.777418 9.05471 1.30244 6.7573 2.57702 4.86671C3.8516 2.97612 5.78442 1.62781 7.99885 1.08451C10.2133 0.541202 12.5507 0.841834 14.5555 1.92782C16.5604 3.0138 18.0891 4.80734 18.8438 6.95892C19.5985 9.11051 19.5251 11.466 18.6378 13.5664C18.1759 14.6603 17.5059 15.6541 16.6651 16.4925Z" fill="#01F299"/>
<path d="M10.1563 1.25415C8.42974 1.25401 6.74191 1.76587 5.30625 2.72499C3.8706 3.68412 2.75161 5.04743 2.09079 6.64252C1.42996 8.23762 1.25699 9.99285 1.59374 11.6863C1.93049 13.3797 2.76184 14.9352 3.98265 16.1561C5.20346 17.377 6.75891 18.2085 8.45229 18.5454C10.1457 18.8822 11.9009 18.7094 13.4961 18.0487C15.0912 17.388 16.4546 16.2691 17.4139 14.8336C18.3731 13.398 18.8851 11.7102 18.8851 9.98365C18.8851 7.66857 17.9655 5.44829 16.3285 3.81121C14.6916 2.17413 12.4714 1.25434 10.1563 1.25415ZM13.2949 8.17882L13.489 8.45719H14.6705L15.0884 8.03927H16.1913L17.207 7.02352H18.023C18.1353 7.32471 18.2299 7.63218 18.3064 7.94436H17.5966L16.7466 8.79436H15.6919L15.0325 9.45665H12.8203L11.6424 10.6027V11.0801L11.3789 11.1333V10.4108L12.4669 9.32277V8.66615L13.2949 8.17882ZM15.5318 5.81794C15.575 5.81794 15.6165 5.80078 15.647 5.77022C15.6776 5.73967 15.6948 5.69823 15.6948 5.65502V3.6639C15.8329 3.78502 15.9675 3.9104 16.0985 4.04144C16.146 4.0889 16.1927 4.13707 16.2402 4.18311C16.2398 4.18688 16.2398 4.19067 16.2402 4.19444V5.9419L15.2811 6.90098H14.1605C14.1173 6.90098 14.0759 6.91815 14.0453 6.9487C14.0148 6.97925 13.9976 7.02069 13.9976 7.0639C13.9976 7.10711 14.0148 7.14855 14.0453 7.1791C14.0759 7.20965 14.1173 7.22682 14.1605 7.22682H15.4135L16.5639 6.07719V4.54648C17.1134 5.19196 17.5615 5.91734 17.8927 6.69769H17.0718L16.056 7.71344H14.9538L14.5359 8.13136H13.659L13.5053 7.91036V6.65307H14.5288V3.94582L13.7681 3.18507V2.39386C14.3377 2.66494 14.8748 2.99976 15.3689 3.3919V5.65502C15.3689 5.69823 15.3861 5.73967 15.4166 5.77022C15.4472 5.80078 15.4886 5.81794 15.5318 5.81794ZM8.86996 6.49086L7.89742 5.51832V3.32886L8.27496 3.01507L8.58026 3.31965V4.30707L9.99692 5.72373V9.87032L10.0182 9.84836L10.1358 9.73077L10.157 9.70952L10.2788 9.83136L10.3199 9.87244V5.72232L11.7366 4.30565V3.31965L12.0412 3.01507L12.4187 3.32886V5.51832L11.4462 6.49086V8.96507L10.82 9.58698L10.4283 9.98294L10.5933 10.1473L10.7152 10.2691L10.5933 10.3909L10.2803 10.704L10.1662 10.8174L10.1584 10.8259L10.0366 10.704L9.71996 10.3909L9.59813 10.2691L9.71996 10.1473L9.8843 9.98294L9.49259 9.58698L8.86996 8.96507V6.49086ZM9.99338 1.5899V3.84948L9.5783 4.26315L10.1549 4.83973L10.7315 4.26315L10.3192 3.84948V1.5899C10.3192 1.5899 10.3192 1.58494 10.3192 1.58211C10.8393 1.59143 11.3575 1.64905 11.8669 1.75423V2.72678L11.4093 3.18507V4.17178L10.157 5.42411L8.90396 4.17178V3.18507L8.44496 2.72678V1.75423C8.95469 1.64933 9.47305 1.59194 9.99338 1.58282V1.5899ZM8.11984 1.82861V2.71615L7.57017 3.17373V5.19532L7.47667 5.10182H6.80942C6.76621 5.10182 6.72478 5.11898 6.69422 5.14953C6.66367 5.18009 6.64651 5.22153 6.64651 5.26473C6.64651 5.30794 6.66367 5.34938 6.69422 5.37993C6.72478 5.41049 6.76621 5.42765 6.80942 5.42765H7.34138L7.58788 5.67344C7.60322 5.70408 7.62807 5.72893 7.65871 5.74427L8.5413 6.62757V9.10107L9.49188 10.0509V11.0036L9.88359 11.3954V12.9997H10.4283V11.3961L10.82 11.0044V10.0495L11.7699 9.09965V6.62615L12.6532 5.74286C12.6837 5.72731 12.7085 5.70252 12.724 5.67203L12.9705 5.42623H13.5025C13.5457 5.42623 13.5871 5.40907 13.6177 5.37852C13.6482 5.34796 13.6654 5.30652 13.6654 5.26332C13.6654 5.22011 13.6482 5.17867 13.6177 5.14812C13.5871 5.11756 13.5457 5.1004 13.5025 5.1004H12.8366L12.7424 5.19532V3.17586L12.192 2.71615V1.82861C12.6139 1.93338 13.027 2.07098 13.4274 2.24015L13.4423 2.24723V3.31965L14.203 4.08111V6.32865H13.1795V7.86998L12.1418 8.48057V9.1889L11.053 10.2776V11.1814C11.0527 11.1873 11.0527 11.1933 11.053 11.1991L10.9673 11.2169L10.6181 11.5661V14.4603L11.2655 15.1084L11.8924 15.7346H12.6992L13.1773 16.2127V16.5464C12.8437 16.5464 12.6156 16.5464 12.4584 16.5464L10.4177 14.5028V13.2207H9.89421V14.5028L7.84996 16.5471C7.69342 16.5471 7.46534 16.5471 7.13101 16.5471V16.2134L7.60913 15.7353H8.41663L9.0428 15.1091L9.69021 14.461V11.5646L9.34384 11.2161L9.25813 11.1984C9.25848 11.1925 9.25848 11.1866 9.25813 11.1807V10.2762L8.17013 9.18748V8.47915L7.13242 7.86857V6.32865H6.10746V4.08111L6.86892 3.31965V2.24723L6.8838 2.24015C7.2844 2.07081 7.69768 1.93321 8.11984 1.82861ZM3.74871 4.54648V6.07932L4.89834 7.22894H6.15209C6.1953 7.22894 6.23674 7.21178 6.26729 7.18122C6.29784 7.15067 6.31501 7.10923 6.31501 7.06602C6.31501 7.02282 6.29784 6.98138 6.26729 6.95083C6.23674 6.92027 6.1953 6.90311 6.15209 6.90311H5.03363L4.07455 5.94402V4.19657C4.07455 4.19232 4.07455 4.18877 4.07455 4.18523C4.12059 4.13707 4.16734 4.0889 4.21621 4.04357C4.34726 3.91252 4.48184 3.78715 4.61996 3.66603V5.65715C4.61996 5.70036 4.63713 5.7418 4.66768 5.77235C4.69823 5.8029 4.73967 5.82007 4.78288 5.82007C4.82609 5.82007 4.86753 5.8029 4.89808 5.77235C4.92863 5.7418 4.9458 5.70036 4.9458 5.65715V3.3919C5.43985 2.99961 5.97691 2.66478 6.54663 2.39386V3.18507L5.78305 3.94582V6.65307H6.8073V7.91036L6.65288 8.13136H5.77667L5.35876 7.71344H4.25588L3.24013 6.69769H2.41917C2.75068 5.91734 3.19899 5.19197 3.74871 4.54648ZM2.28955 7.02565H3.10555L4.12413 8.03927H5.2263L5.64421 8.45719H6.82288L7.01767 8.17882L7.84501 8.66615V9.32348L8.93371 10.4115V11.134L8.67021 11.0809V10.6034L7.49013 9.45807H5.28367L4.61996 8.79436H3.56738L2.71738 7.94436H1.99913C2.07797 7.63203 2.17494 7.32457 2.28955 7.02352V7.02565ZM2.4128 13.259C1.97471 12.2242 1.75017 11.1116 1.75263 9.9879C1.75215 9.40989 1.81101 8.83335 1.9283 8.26736H2.58067L3.43067 9.11736H4.06817L2.88738 10.8067H2.50488C2.46167 10.8067 2.42023 10.8239 2.38968 10.8545C2.35913 10.885 2.34196 10.9264 2.34196 10.9696C2.34196 11.0129 2.35913 11.0543 2.38968 11.0848C2.42023 11.1154 2.46167 11.1326 2.50488 11.1326H3.06163L4.46555 9.12302V9.11736H4.48538L5.14838 9.77965H6.80942L6.84838 9.81011C7.03662 9.9507 7.20362 10.1177 7.34421 10.3059C7.44282 10.4331 7.50501 10.5846 7.52413 10.7444H6.39788L5.95517 10.3024H5.00813L3.78555 11.525H3.28192C3.23871 11.525 3.19728 11.5421 3.16672 11.5727C3.13617 11.6033 3.11901 11.6447 3.11901 11.6879C3.11901 11.7311 3.13617 11.7725 3.16672 11.8031C3.19728 11.8337 3.23871 11.8508 3.28192 11.8508H3.91942L5.14201 10.6282H5.82413L6.10321 10.9073L3.51496 13.4956H3.08005C3.03684 13.4956 2.9954 13.5127 2.96485 13.5433C2.9343 13.5738 2.91713 13.6153 2.91713 13.6585C2.91713 13.7017 2.9343 13.7431 2.96485 13.7737C2.9954 13.8042 3.03684 13.8214 3.08005 13.8214H3.65026L6.39788 11.0745H7.43346L7.4278 11.0809H8.44496C8.44496 11.0809 8.89759 11.3401 8.89759 12.285C8.89759 13.6847 7.96471 14.7493 7.60771 15.1063H8.58451L8.28346 15.4074H7.47455L6.80588 16.076V16.5449H6.52255C5.73701 16.5485 4.95005 16.5563 4.94226 16.5563H4.92242C3.82335 15.6808 2.96023 14.5447 2.41138 13.2512L2.4128 13.259ZM5.35309 16.8828C6.33413 16.8743 7.58151 16.8686 7.99517 16.8771V17.4587L7.49438 17.9595C7.28896 17.8905 7.08591 17.8138 6.88521 17.7293C6.34641 17.5013 5.83291 17.2176 5.35309 16.8828ZM10.3192 18.3873V16.4791L10.7329 16.0654L10.1563 15.4881L9.5783 16.0654L9.99196 16.4791V18.3852C9.26544 18.3728 8.54367 18.2654 7.84501 18.0657L8.31959 17.5911V16.8828L8.9408 16.2616L9.20713 16.5279V17.6903C9.20713 17.7335 9.2243 17.775 9.25485 17.8055C9.2854 17.8361 9.32684 17.8532 9.37005 17.8532C9.41326 17.8532 9.45469 17.8361 9.48525 17.8055C9.5158 17.775 9.53296 17.7335 9.53296 17.6903V16.3912L9.17101 16.03L10.1549 15.0461L11.1366 16.0328L10.7754 16.3941V17.6903C10.7754 17.7335 10.7925 17.775 10.8231 17.8055C10.8537 17.8361 10.8951 17.8532 10.9383 17.8532C10.9815 17.8532 11.0229 17.8361 11.0535 17.8055C11.084 17.775 11.1012 17.7335 11.1012 17.6903V16.5286L11.3675 16.2623L11.9888 16.8835V17.5919L12.4633 18.0664C11.7655 18.2655 11.0447 18.3727 10.3192 18.3852V18.3873ZM13.4274 17.7293C13.2262 17.8143 13.0229 17.891 12.8175 17.9595L12.3167 17.4587V16.8771C12.7311 16.8686 13.9785 16.8771 14.9595 16.8828C14.4795 17.2167 13.966 17.4997 13.4274 17.7271V17.7293ZM17.8991 13.2569C17.4774 14.2553 16.8659 15.1625 16.0985 15.928C15.8743 16.1523 15.6379 16.3639 15.3902 16.5619H15.3696C15.3618 16.5619 14.5749 16.5541 13.7893 16.5506H13.506V16.0817L12.8366 15.4081H12.0305L11.7302 15.107H12.707C12.3493 14.7529 11.4164 13.6854 11.4164 12.2857C11.4164 11.3394 11.869 11.0816 11.869 11.0816H12.8841L12.8784 11.0752H13.9147L16.6616 13.8214H17.2318C17.275 13.8214 17.3165 13.8042 17.347 13.7737C17.3776 13.7431 17.3948 13.7017 17.3948 13.6585C17.3948 13.6153 17.3776 13.5738 17.347 13.5433C17.3165 13.5127 17.275 13.4956 17.2318 13.4956H16.7962L14.2115 10.9109L14.4906 10.6318H15.1685L16.3918 11.8536H17.0293C17.0506 11.8536 17.0718 11.8494 17.0916 11.8412C17.1114 11.8331 17.1293 11.8211 17.1445 11.8059C17.1596 11.7908 17.1716 11.7728 17.1798 11.7531C17.188 11.7333 17.1922 11.7121 17.1922 11.6907C17.1922 11.6693 17.188 11.6482 17.1798 11.6284C17.1716 11.6086 17.1596 11.5907 17.1445 11.5755C17.1293 11.5604 17.1114 11.5484 17.0916 11.5402C17.0718 11.532 17.0506 11.5278 17.0293 11.5278H16.5263L15.3038 10.3052H14.3567L13.9147 10.7472H12.7892C12.8079 10.5874 12.8702 10.4357 12.9691 10.3088C13.1095 10.1204 13.2765 9.95334 13.4649 9.81294L13.5039 9.78248H15.1649L15.8272 9.12019H15.847C15.8484 9.12198 15.8496 9.12387 15.8506 9.12586L17.2552 11.1354H17.807C17.8502 11.1354 17.8917 11.1182 17.9222 11.0877C17.9528 11.0571 17.9699 11.0157 17.9699 10.9725C17.9699 10.9293 17.9528 10.8878 17.9222 10.8573C17.8917 10.8267 17.8502 10.8096 17.807 10.8096H17.4252L16.2437 9.12019H16.8812L17.7312 8.27019H18.3836C18.5006 8.83479 18.5594 9.40989 18.5593 9.98648C18.5613 11.1092 18.3368 12.2208 17.8991 13.2547V13.2569Z" fill="#01F299"/>
</svg>
