<svg width="19" height="20" viewBox="0 0 19 20" fill="none" xmlns="http://www.w3.org/2000/svg">
<path d="M9.36719 18.4219C14.135 18.4219 18 14.5568 18 9.78906C18 5.02129 14.135 1.15625 9.36719 1.15625C4.59942 1.15625 0.734375 5.02129 0.734375 9.78906C0.734375 14.5568 4.59942 18.4219 9.36719 18.4219Z" stroke="#00E38F" stroke-width="1.19531"/>
<path d="M9.36719 4.60938V14.9688M11.957 7.63086C11.957 6.43953 10.7976 5.47266 9.36719 5.47266C7.93673 5.47266 6.77734 6.43953 6.77734 7.63086C6.77734 8.82219 7.93673 9.78906 9.36719 9.78906C10.7976 9.78906 11.957 10.7559 11.957 11.9473C11.957 13.1386 10.7976 14.1055 9.36719 14.1055C7.93673 14.1055 6.77734 13.1386 6.77734 11.9473" stroke="#00E38F" stroke-width="1.19531" stroke-linecap="round"/>
</svg>
