<svg width="29" height="28" viewBox="0 0 29 28" fill="none" xmlns="http://www.w3.org/2000/svg">
<path d="M7.5 10.501H12.1667" stroke="white" stroke-width="1.5" stroke-linecap="round" stroke-linejoin="round"/>
<path d="M24.8052 11.6675H21.7695C19.687 11.6675 18 13.2343 18 15.1675C18 17.1007 19.6882 18.6675 21.7684 18.6675H24.8052C24.9032 18.6675 24.9511 18.6675 24.9919 18.6652C25.6219 18.6267 26.1236 18.1612 26.1644 17.5767C26.1667 17.5394 26.1667 17.4939 26.1667 17.404V12.931C26.1667 12.8412 26.1667 12.7957 26.1644 12.7583C26.1224 12.1738 25.6219 11.7083 24.9919 11.6698C24.9511 11.6675 24.9032 11.6675 24.8052 11.6675Z" stroke="white" stroke-width="1.5"/>
<path d="M24.96 11.6673C24.869 9.48332 24.5773 8.14397 23.6335 7.2013C22.2673 5.83395 20.067 5.83395 15.6674 5.83395H12.1674C7.76786 5.83395 5.56751 5.83395 4.20133 7.2013C2.83398 8.56748 2.83398 10.7678 2.83398 15.1674C2.83398 19.5669 2.83398 21.7673 4.20133 23.1334C5.56751 24.5008 7.76786 24.5008 12.1674 24.5008H15.6674C20.067 24.5008 22.2673 24.5008 23.6335 23.1334C24.5773 22.1908 24.8702 20.8514 24.96 18.6674" stroke="white" stroke-width="1.5"/>
<path d="M7.5 5.83414L11.8575 2.94428C12.4704 2.54567 13.1857 2.3335 13.9167 2.3335C14.6478 2.3335 15.3631 2.54567 15.9759 2.94428L20.3334 5.83414" stroke="white" stroke-width="1.5" stroke-linecap="round"/>
<path d="M21.4902 15.1675H21.4992" stroke="white" stroke-width="2" stroke-linecap="round" stroke-linejoin="round"/>
</svg>
